<svg width="50" height="50" viewBox="0 0 50 50" fill="none" xmlns="http://www.w3.org/2000/svg">
<path d="M28.8123 39.5833C28.5011 39.5844 28.1936 39.5157 27.9123 39.3823C27.6311 39.2489 27.3834 39.0542 27.1873 38.8125L17.1248 26.3125C16.8184 25.9397 16.6509 25.4721 16.6509 24.9896C16.6509 24.507 16.8184 24.0394 17.1248 23.6667L27.5415 11.1667C27.8951 10.7412 28.4032 10.4737 28.9541 10.4229C29.505 10.3721 30.0535 10.5422 30.479 10.8958C30.9044 11.2495 31.172 11.7576 31.2228 12.3085C31.2736 12.8594 31.1034 13.4079 30.7498 13.8333L21.4373 25L30.4373 36.1667C30.6921 36.4725 30.8539 36.8448 30.9036 37.2397C30.9534 37.6346 30.889 38.0355 30.718 38.395C30.5471 38.7544 30.2767 39.0573 29.939 39.2679C29.6013 39.4785 29.2103 39.588 28.8123 39.5833Z" fill="white"/>
</svg>
