<svg width="29" height="29" viewBox="0 0 29 29" fill="none" xmlns="http://www.w3.org/2000/svg">
<path d="M1.23584 1.23501C1.74216 0.72884 2.42879 0.444489 3.14474 0.444489C3.86068 0.444489 4.54731 0.72884 5.05364 1.23501L14.6008 10.7822L24.148 1.23501C24.6573 0.743185 25.3393 0.47104 26.0472 0.477192C26.7551 0.483344 27.4323 0.7673 27.9329 1.2679C28.4335 1.7685 28.7175 2.4457 28.7237 3.15363C28.7298 3.86156 28.4577 4.54359 27.9658 5.05281L18.4186 14.6L27.9658 24.1472C28.4577 24.6564 28.7298 25.3385 28.7237 26.0464C28.7175 26.7543 28.4335 27.4315 27.9329 27.9321C27.4323 28.4327 26.7551 28.7167 26.0472 28.7228C25.3393 28.729 24.6573 28.4568 24.148 27.965L14.6008 18.4178L5.05364 27.965C4.54441 28.4568 3.86238 28.729 3.15445 28.7228C2.44652 28.7167 1.76933 28.4327 1.26873 27.9321C0.768124 27.4315 0.484168 26.7543 0.478016 26.0464C0.471864 25.3385 0.744009 24.6564 1.23584 24.1472L10.783 14.6L1.23584 5.05281C0.729664 4.54649 0.445312 3.85985 0.445312 3.14391C0.445312 2.42797 0.729664 1.74134 1.23584 1.23501Z" fill="white"/>
</svg>
