<svg width="50" height="50" viewBox="0 0 50 50" fill="none" xmlns="http://www.w3.org/2000/svg">
<path d="M18.75 9.375C16.1611 9.375 14.0625 7.27637 14.0625 4.6875C14.0625 2.09863 16.1611 0 18.75 0C21.3389 0 23.4375 2.09863 23.4375 4.6875C23.4375 7.27637 21.3389 9.375 18.75 9.375ZM34.21 31.0029L35.6553 34.374H42.1875C43.9131 34.374 45.3125 35.7734 45.3125 37.499C45.3125 39.2246 43.9131 40.624 42.1875 40.624H34.624C32.7441 40.624 31.0518 39.5068 30.3164 37.7832L29.458 35.7793L30.5 35.1641C32.1914 34.165 33.4355 32.6865 34.21 31.0029ZM7.8125 21.874H12.1123L14.6572 16.6738C15.8779 14.1787 18.1191 12.3545 20.6904 11.6992L27.6318 9.63477C30.3955 8.9707 33.2734 9.58105 35.5264 11.3086L39.4004 14.2783C40.7705 15.3281 41.0303 17.2891 39.9785 18.6592C38.9268 20.0293 36.9668 20.2861 35.5977 19.2373L31.7217 16.2676C30.9727 15.6924 30.0186 15.4863 29.2539 15.668L27.8184 16.0947L31.4766 24.6289C32.709 27.5078 31.6045 30.8799 28.9082 32.4717L20.6094 37.3711L23.292 45.9385C23.8076 47.585 22.8906 49.3379 21.2441 49.8535C20.9326 49.9512 20.6182 49.998 20.3086 49.998C18.9795 49.998 17.7471 49.1416 17.3281 47.8057L14.2383 37.9365C13.6611 35.9082 14.5205 33.7295 16.3516 32.625L22.332 29.0957L19.2744 21.4512L17.2949 25.4971C16.5137 27.0928 14.8613 28.123 13.085 28.123H7.8125C6.08691 28.123 4.6875 26.7236 4.6875 24.998C4.6875 23.2725 6.08691 21.874 7.8125 21.874Z" fill="#111111"/>
</svg>
