<svg width="50" height="50" viewBox="0 0 50 50" fill="none" xmlns="http://www.w3.org/2000/svg">
<path d="M18.75 32.8125C18.75 32.3981 18.9146 32.0007 19.2076 31.7076C19.5007 31.4146 19.8981 31.25 20.3125 31.25H29.6875C30.1019 31.25 30.4993 31.4146 30.7924 31.7076C31.0854 32.0007 31.25 32.3981 31.25 32.8125C31.25 33.2269 31.0854 33.6243 30.7924 33.9174C30.4993 34.2104 30.1019 34.375 29.6875 34.375H20.3125C19.8981 34.375 19.5007 34.2104 19.2076 33.9174C18.9146 33.6243 18.75 33.2269 18.75 32.8125ZM12.5 23.4375C12.5 23.0231 12.6646 22.6257 12.9576 22.3326C13.2507 22.0396 13.6481 21.875 14.0625 21.875H35.9375C36.3519 21.875 36.7493 22.0396 37.0424 22.3326C37.3354 22.6257 37.5 23.0231 37.5 23.4375C37.5 23.8519 37.3354 24.2493 37.0424 24.5424C36.7493 24.8354 36.3519 25 35.9375 25H14.0625C13.6481 25 13.2507 24.8354 12.9576 24.5424C12.6646 24.2493 12.5 23.8519 12.5 23.4375ZM6.25 14.0625C6.25 13.6481 6.41462 13.2507 6.70765 12.9576C7.00067 12.6646 7.3981 12.5 7.8125 12.5H42.1875C42.6019 12.5 42.9993 12.6646 43.2924 12.9576C43.5854 13.2507 43.75 13.6481 43.75 14.0625C43.75 14.4769 43.5854 14.8743 43.2924 15.1674C42.9993 15.4604 42.6019 15.625 42.1875 15.625H7.8125C7.3981 15.625 7.00067 15.4604 6.70765 15.1674C6.41462 14.8743 6.25 14.4769 6.25 14.0625Z" fill="white"/>
</svg>
