<svg width="32" height="32" viewBox="0 0 32 32" fill="none" xmlns="http://www.w3.org/2000/svg">
<path d="M11.25 26.5143H12.5V17.4857H11.25C10.5596 17.4857 10 16.9261 10 16.2357V13.25C10 12.5596 10.5596 12 11.25 12H18.25C18.9404 12 19.5 12.5596 19.5 13.25V26.5143H20.75C21.4404 26.5143 22 27.0739 22 27.7643V30.75C22 31.4404 21.4404 32 20.75 32H11.25C10.5596 32 10 31.4404 10 30.75V27.7643C10 27.0739 10.5596 26.5143 11.25 26.5143ZM16 0C13.5147 0 11.5 2.01469 11.5 4.5C11.5 6.98531 13.5147 9 16 9C18.4853 9 20.5 6.98531 20.5 4.5C20.5 2.01469 18.4853 0 16 0Z" fill="white"/>
</svg>
