<svg width="50" height="50" viewBox="0 0 50 50" fill="none" xmlns="http://www.w3.org/2000/svg">
<path d="M20.8333 25.0002C20.8333 26.1052 21.2723 27.165 22.0537 27.9464C22.8351 28.7278 23.8949 29.1668 25 29.1668C26.105 29.1668 27.1649 28.7278 27.9463 27.9464C28.7277 27.165 29.1666 26.1052 29.1666 25.0002C29.1666 23.8951 28.7277 22.8353 27.9463 22.0539C27.1649 21.2725 26.105 20.8335 25 20.8335C23.8949 20.8335 22.8351 21.2725 22.0537 22.0539C21.2723 22.8353 20.8333 23.8951 20.8333 25.0002ZM20.8333 12.5002C20.8333 13.6052 21.2723 14.665 22.0537 15.4464C22.8351 16.2278 23.8949 16.6668 25 16.6668C26.105 16.6668 27.1649 16.2278 27.9463 15.4464C28.7277 14.665 29.1666 13.6052 29.1666 12.5002C29.1666 11.3951 28.7277 10.3353 27.9463 9.55388C27.1649 8.77248 26.105 8.3335 25 8.3335C23.8949 8.3335 22.8351 8.77248 22.0537 9.55388C21.2723 10.3353 20.8333 11.3951 20.8333 12.5002ZM20.8333 37.5002C20.8333 38.6052 21.2723 39.665 22.0537 40.4464C22.8351 41.2278 23.8949 41.6668 25 41.6668C26.105 41.6668 27.1649 41.2278 27.9463 40.4464C28.7277 39.665 29.1666 38.6052 29.1666 37.5002C29.1666 36.3951 28.7277 35.3353 27.9463 34.5539C27.1649 33.7725 26.105 33.3335 25 33.3335C23.8949 33.3335 22.8351 33.7725 22.0537 34.5539C21.2723 35.3353 20.8333 36.3951 20.8333 37.5002Z" fill="white"/>
</svg>
