<svg width="32" height="32" viewBox="0 0 32 32" fill="none" xmlns="http://www.w3.org/2000/svg">
<path d="M28.425 26.7031L20.3094 18.5875C21.5688 16.9594 22.25 14.9688 22.25 12.875C22.25 10.3688 21.2719 8.01875 19.5031 6.24688C17.7344 4.475 15.3781 3.5 12.875 3.5C10.3719 3.5 8.01563 4.47812 6.24688 6.24688C4.475 8.01563 3.5 10.3688 3.5 12.875C3.5 15.3781 4.47812 17.7344 6.24688 19.5031C8.01563 21.275 10.3688 22.25 12.875 22.25C14.9688 22.25 16.9563 21.5688 18.5844 20.3125L26.7 28.425C26.7238 28.4488 26.7521 28.4677 26.7832 28.4806C26.8143 28.4935 26.8476 28.5001 26.8813 28.5001C26.9149 28.5001 26.9482 28.4935 26.9793 28.4806C27.0105 28.4677 27.0387 28.4488 27.0625 28.425L28.425 27.0656C28.4488 27.0418 28.4677 27.0136 28.4806 26.9825C28.4935 26.9514 28.5001 26.918 28.5001 26.8844C28.5001 26.8507 28.4935 26.8174 28.4806 26.7863C28.4677 26.7552 28.4488 26.7269 28.425 26.7031ZM17.825 17.825C16.5 19.1469 14.7438 19.875 12.875 19.875C11.0063 19.875 9.25 19.1469 7.925 17.825C6.60313 16.5 5.875 14.7438 5.875 12.875C5.875 11.0063 6.60313 9.24688 7.925 7.925C9.25 6.60313 11.0063 5.875 12.875 5.875C14.7438 5.875 16.5031 6.6 17.825 7.925C19.1469 9.25 19.875 11.0063 19.875 12.875C19.875 14.7438 19.1469 16.5031 17.825 17.825Z" fill="white"/>
</svg>
