<svg width="32" height="32" viewBox="0 0 32 32" fill="none" xmlns="http://www.w3.org/2000/svg">
<g clip-path="url(#clip0_1146_77)">
<path d="M11.9461 5.72509L7.00333 10.6668H1.33333C0.596667 10.6668 0 11.2634 0 12.0001V20.0001C0 20.7362 0.596667 21.3334 1.33333 21.3334H7.00333L11.9461 26.2751C12.7811 27.1101 14.2222 26.5234 14.2222 25.3323V6.66787C14.2222 5.47565 12.78 4.89121 11.9461 5.72509ZM24.9083 2.88732C24.2878 2.48009 23.4539 2.65176 23.0467 3.27343C22.6389 3.89398 22.8122 4.72787 23.4328 5.13509C27.1144 7.55121 29.3117 11.6129 29.3117 16.0007C29.3117 20.3884 27.1144 24.4501 23.4328 26.8662C22.8122 27.2729 22.6389 28.1073 23.0467 28.7273C23.4378 29.3223 24.265 29.5362 24.9083 29.1134C29.3483 26.199 32 21.2962 32 16.0001C32 10.704 29.3483 5.80176 24.9083 2.88732ZM26.6667 16.0001C26.6667 12.4706 24.8856 9.22565 21.9017 7.32009C21.28 6.92343 20.4556 7.10787 20.0617 7.73454C19.6678 8.36121 19.8517 9.19065 20.4733 9.58787C22.6817 10.9984 24 13.3951 24 16.0001C24 18.6051 22.6817 21.0018 20.4733 22.4123C19.8517 22.809 19.6678 23.6384 20.0617 24.2656C20.4233 24.8412 21.235 25.1068 21.9017 24.6801C24.8856 22.7745 26.6667 19.5301 26.6667 16.0001ZM18.7906 11.7295C18.1472 11.3779 17.3356 11.6095 16.9789 12.2545C16.6239 12.8995 16.8589 13.7101 17.5039 14.0662C18.2211 14.4601 18.6667 15.2018 18.6667 16.0001C18.6667 16.799 18.2211 17.5401 17.5044 17.934C16.8594 18.2901 16.6244 19.1007 16.9794 19.7456C17.3367 20.3934 18.1489 20.6234 18.7911 20.2706C20.3594 19.4068 21.3339 17.7706 21.3339 15.9995C21.3339 14.2284 20.3594 12.5929 18.7906 11.7295Z" fill="white"/>
</g>
<defs>
<clipPath id="clip0_1146_77">
<rect width="32" height="32" fill="white"/>
</clipPath>
</defs>
</svg>
