<svg width="30" height="30" viewBox="0 0 30 30" fill="none" xmlns="http://www.w3.org/2000/svg">
<g clip-path="url(#clip0_1657_2)">
<path d="M12.5994 4.16309L7.38633 9.375H1.40625C0.629297 9.375 0 10.0043 0 10.7813V19.2187C0 19.9951 0.629297 20.625 1.40625 20.625H7.38633L12.5994 25.8369C13.4801 26.7176 15 26.0988 15 24.8426V5.15742C15 3.9 13.4789 3.28359 12.5994 4.16309ZM27.0492 15L29.7234 12.3258C30.0926 11.9566 30.0926 11.3578 29.7234 10.9887L28.3863 9.65156C28.0172 9.28242 27.4184 9.28242 27.0492 9.65156L24.375 12.3258L21.7008 9.65156C21.3316 9.28242 20.7328 9.28242 20.3637 9.65156L19.0266 10.9887C18.6574 11.3578 18.6574 11.9566 19.0266 12.3258L21.7008 15L19.0271 17.6736C18.658 18.0428 18.658 18.6416 19.0271 19.0107L20.3643 20.3479C20.7334 20.717 21.3322 20.717 21.7014 20.3479L24.375 17.6742L27.0492 20.3484C27.4184 20.7176 28.0172 20.7176 28.3863 20.3484L29.7234 19.0113C30.0926 18.6422 30.0926 18.0434 29.7234 17.6742L27.0492 15Z" fill="white"/>
</g>
<defs>
<clipPath id="clip0_1657_2">
<rect width="30" height="30" fill="white"/>
</clipPath>
</defs>
</svg>
